M48
;DRILL file {KiCad 4.0.6} date 11/11/17 16:17:59
;FORMAT={3:3/ absolute / metric / suppress leading zeros}
FMAT,2
METRIC,TZ
T1C3.000
%
G90
G05
M71
T1
X70500Y-38000
X70500Y-63000
X70500Y-88000
X70500Y-113000
X83000Y-38000
X83000Y-63000
X83000Y-88000
X83000Y-113000
X95500Y-38000
X95500Y-63000
X95500Y-88000
X95500Y-113000
X108000Y-38000
X108000Y-63000
X108000Y-88000
X108000Y-113000
X120500Y-38000
X120500Y-63000
X120500Y-88000
X120500Y-113000
X133000Y-38000
X133000Y-63000
X133000Y-88000
X133000Y-113000
X145500Y-38000
X145500Y-63000
X145500Y-88000
X145500Y-113000
X158000Y-38000
X158000Y-63000
X158000Y-88000
X158000Y-113000
T0
M30
