G04 #@! TF.FileFunction,Soldermask,Bot*
%FSLAX46Y46*%
G04 Gerber Fmt 4.6, Leading zero omitted, Abs format (unit mm)*
G04 Created by KiCad (PCBNEW 4.0.6) date 11/11/17 16:17:48*
%MOMM*%
%LPD*%
G01*
G04 APERTURE LIST*
%ADD10C,0.100000*%
%ADD11R,1.400000X2.400000*%
%ADD12O,3.400000X3.400000*%
%ADD13O,1.400000X1.500000*%
%ADD14C,2.400000*%
%ADD15O,1.500000X1.400000*%
%ADD16R,2.100000X2.100000*%
%ADD17O,2.100000X2.100000*%
G04 APERTURE END LIST*
D10*
D11*
X118175000Y-133595000D03*
X119445000Y-133595000D03*
X120715000Y-133595000D03*
X121985000Y-133595000D03*
D12*
X120500000Y-113000000D03*
D13*
X123128000Y-125856000D03*
X123128000Y-127126000D03*
X123128000Y-128904000D03*
X123128000Y-130174000D03*
X123128000Y-103904000D03*
X123128000Y-105174000D03*
X123128000Y-100856000D03*
X123128000Y-102126000D03*
D12*
X120500000Y-88000000D03*
D11*
X118175000Y-108595000D03*
X119445000Y-108595000D03*
X120715000Y-108595000D03*
X121985000Y-108595000D03*
X118175000Y-58595000D03*
X119445000Y-58595000D03*
X120715000Y-58595000D03*
X121985000Y-58595000D03*
D12*
X120500000Y-38000000D03*
D13*
X123128000Y-50856000D03*
X123128000Y-52126000D03*
X123128000Y-53904000D03*
X123128000Y-55174000D03*
X123128000Y-78904000D03*
X123128000Y-80174000D03*
X123128000Y-75856000D03*
X123128000Y-77126000D03*
D12*
X120500000Y-63000000D03*
D11*
X118175000Y-83595000D03*
X119445000Y-83595000D03*
X120715000Y-83595000D03*
X121985000Y-83595000D03*
D12*
X133000000Y-63000000D03*
D14*
X136795000Y-83095000D03*
X134255000Y-83095000D03*
X131715000Y-83095000D03*
X129175000Y-83095000D03*
D15*
X131080000Y-79666000D03*
X129810000Y-79666000D03*
X138192000Y-79666000D03*
X136922000Y-79666000D03*
D16*
X127905000Y-69760000D03*
D17*
X130445000Y-69760000D03*
X132985000Y-69760000D03*
X135525000Y-69760000D03*
X138065000Y-69760000D03*
D16*
X127905000Y-44760000D03*
D17*
X130445000Y-44760000D03*
X132985000Y-44760000D03*
X135525000Y-44760000D03*
X138065000Y-44760000D03*
D15*
X138192000Y-54666000D03*
X136922000Y-54666000D03*
X131080000Y-54666000D03*
X129810000Y-54666000D03*
D14*
X136795000Y-58095000D03*
X134255000Y-58095000D03*
X131715000Y-58095000D03*
X129175000Y-58095000D03*
D12*
X133000000Y-38000000D03*
X133000000Y-88000000D03*
D14*
X136795000Y-108095000D03*
X134255000Y-108095000D03*
X131715000Y-108095000D03*
X129175000Y-108095000D03*
D15*
X131080000Y-104666000D03*
X129810000Y-104666000D03*
X138192000Y-104666000D03*
X136922000Y-104666000D03*
D16*
X127905000Y-94760000D03*
D17*
X130445000Y-94760000D03*
X132985000Y-94760000D03*
X135525000Y-94760000D03*
X138065000Y-94760000D03*
D16*
X127905000Y-119760000D03*
D17*
X130445000Y-119760000D03*
X132985000Y-119760000D03*
X135525000Y-119760000D03*
X138065000Y-119760000D03*
D15*
X138192000Y-129666000D03*
X136922000Y-129666000D03*
X131080000Y-129666000D03*
X129810000Y-129666000D03*
D14*
X136795000Y-133095000D03*
X134255000Y-133095000D03*
X131715000Y-133095000D03*
X129175000Y-133095000D03*
D12*
X133000000Y-113000000D03*
X158000000Y-113000000D03*
D14*
X161795000Y-133095000D03*
X159255000Y-133095000D03*
X156715000Y-133095000D03*
X154175000Y-133095000D03*
D15*
X156080000Y-129666000D03*
X154810000Y-129666000D03*
X163192000Y-129666000D03*
X161922000Y-129666000D03*
D16*
X152905000Y-119760000D03*
D17*
X155445000Y-119760000D03*
X157985000Y-119760000D03*
X160525000Y-119760000D03*
X163065000Y-119760000D03*
D16*
X152905000Y-94760000D03*
D17*
X155445000Y-94760000D03*
X157985000Y-94760000D03*
X160525000Y-94760000D03*
X163065000Y-94760000D03*
D15*
X163192000Y-104666000D03*
X161922000Y-104666000D03*
X156080000Y-104666000D03*
X154810000Y-104666000D03*
D14*
X161795000Y-108095000D03*
X159255000Y-108095000D03*
X156715000Y-108095000D03*
X154175000Y-108095000D03*
D12*
X158000000Y-88000000D03*
X158000000Y-38000000D03*
D14*
X161795000Y-58095000D03*
X159255000Y-58095000D03*
X156715000Y-58095000D03*
X154175000Y-58095000D03*
D15*
X156080000Y-54666000D03*
X154810000Y-54666000D03*
X163192000Y-54666000D03*
X161922000Y-54666000D03*
D16*
X152905000Y-44760000D03*
D17*
X155445000Y-44760000D03*
X157985000Y-44760000D03*
X160525000Y-44760000D03*
X163065000Y-44760000D03*
D16*
X152905000Y-69760000D03*
D17*
X155445000Y-69760000D03*
X157985000Y-69760000D03*
X160525000Y-69760000D03*
X163065000Y-69760000D03*
D15*
X163192000Y-79666000D03*
X161922000Y-79666000D03*
X156080000Y-79666000D03*
X154810000Y-79666000D03*
D14*
X161795000Y-83095000D03*
X159255000Y-83095000D03*
X156715000Y-83095000D03*
X154175000Y-83095000D03*
D12*
X158000000Y-63000000D03*
D11*
X143175000Y-83595000D03*
X144445000Y-83595000D03*
X145715000Y-83595000D03*
X146985000Y-83595000D03*
D12*
X145500000Y-63000000D03*
D13*
X148128000Y-75856000D03*
X148128000Y-77126000D03*
X148128000Y-78904000D03*
X148128000Y-80174000D03*
X148128000Y-53904000D03*
X148128000Y-55174000D03*
X148128000Y-50856000D03*
X148128000Y-52126000D03*
D12*
X145500000Y-38000000D03*
D11*
X143175000Y-58595000D03*
X144445000Y-58595000D03*
X145715000Y-58595000D03*
X146985000Y-58595000D03*
X143175000Y-108595000D03*
X144445000Y-108595000D03*
X145715000Y-108595000D03*
X146985000Y-108595000D03*
D12*
X145500000Y-88000000D03*
D13*
X148128000Y-100856000D03*
X148128000Y-102126000D03*
X148128000Y-103904000D03*
X148128000Y-105174000D03*
X148128000Y-128904000D03*
X148128000Y-130174000D03*
X148128000Y-125856000D03*
X148128000Y-127126000D03*
D12*
X145500000Y-113000000D03*
D11*
X143175000Y-133595000D03*
X144445000Y-133595000D03*
X145715000Y-133595000D03*
X146985000Y-133595000D03*
X93175000Y-133595000D03*
X94445000Y-133595000D03*
X95715000Y-133595000D03*
X96985000Y-133595000D03*
D12*
X95500000Y-113000000D03*
D13*
X98128000Y-125856000D03*
X98128000Y-127126000D03*
X98128000Y-128904000D03*
X98128000Y-130174000D03*
X98128000Y-103904000D03*
X98128000Y-105174000D03*
X98128000Y-100856000D03*
X98128000Y-102126000D03*
D12*
X95500000Y-88000000D03*
D11*
X93175000Y-108595000D03*
X94445000Y-108595000D03*
X95715000Y-108595000D03*
X96985000Y-108595000D03*
X93175000Y-58595000D03*
X94445000Y-58595000D03*
X95715000Y-58595000D03*
X96985000Y-58595000D03*
D12*
X95500000Y-38000000D03*
D13*
X98128000Y-50856000D03*
X98128000Y-52126000D03*
X98128000Y-53904000D03*
X98128000Y-55174000D03*
X98128000Y-78904000D03*
X98128000Y-80174000D03*
X98128000Y-75856000D03*
X98128000Y-77126000D03*
D12*
X95500000Y-63000000D03*
D11*
X93175000Y-83595000D03*
X94445000Y-83595000D03*
X95715000Y-83595000D03*
X96985000Y-83595000D03*
D12*
X108000000Y-63000000D03*
D14*
X111795000Y-83095000D03*
X109255000Y-83095000D03*
X106715000Y-83095000D03*
X104175000Y-83095000D03*
D15*
X106080000Y-79666000D03*
X104810000Y-79666000D03*
X113192000Y-79666000D03*
X111922000Y-79666000D03*
D16*
X102905000Y-69760000D03*
D17*
X105445000Y-69760000D03*
X107985000Y-69760000D03*
X110525000Y-69760000D03*
X113065000Y-69760000D03*
D16*
X102905000Y-44760000D03*
D17*
X105445000Y-44760000D03*
X107985000Y-44760000D03*
X110525000Y-44760000D03*
X113065000Y-44760000D03*
D15*
X113192000Y-54666000D03*
X111922000Y-54666000D03*
X106080000Y-54666000D03*
X104810000Y-54666000D03*
D14*
X111795000Y-58095000D03*
X109255000Y-58095000D03*
X106715000Y-58095000D03*
X104175000Y-58095000D03*
D12*
X108000000Y-38000000D03*
X108000000Y-88000000D03*
D14*
X111795000Y-108095000D03*
X109255000Y-108095000D03*
X106715000Y-108095000D03*
X104175000Y-108095000D03*
D15*
X106080000Y-104666000D03*
X104810000Y-104666000D03*
X113192000Y-104666000D03*
X111922000Y-104666000D03*
D16*
X102905000Y-94760000D03*
D17*
X105445000Y-94760000D03*
X107985000Y-94760000D03*
X110525000Y-94760000D03*
X113065000Y-94760000D03*
D16*
X102905000Y-119760000D03*
D17*
X105445000Y-119760000D03*
X107985000Y-119760000D03*
X110525000Y-119760000D03*
X113065000Y-119760000D03*
D15*
X113192000Y-129666000D03*
X111922000Y-129666000D03*
X106080000Y-129666000D03*
X104810000Y-129666000D03*
D14*
X111795000Y-133095000D03*
X109255000Y-133095000D03*
X106715000Y-133095000D03*
X104175000Y-133095000D03*
D12*
X108000000Y-113000000D03*
X83000000Y-113000000D03*
D14*
X86795000Y-133095000D03*
X84255000Y-133095000D03*
X81715000Y-133095000D03*
X79175000Y-133095000D03*
D15*
X81080000Y-129666000D03*
X79810000Y-129666000D03*
X88192000Y-129666000D03*
X86922000Y-129666000D03*
D16*
X77905000Y-119760000D03*
D17*
X80445000Y-119760000D03*
X82985000Y-119760000D03*
X85525000Y-119760000D03*
X88065000Y-119760000D03*
D16*
X77905000Y-94760000D03*
D17*
X80445000Y-94760000D03*
X82985000Y-94760000D03*
X85525000Y-94760000D03*
X88065000Y-94760000D03*
D15*
X88192000Y-104666000D03*
X86922000Y-104666000D03*
X81080000Y-104666000D03*
X79810000Y-104666000D03*
D14*
X86795000Y-108095000D03*
X84255000Y-108095000D03*
X81715000Y-108095000D03*
X79175000Y-108095000D03*
D12*
X83000000Y-88000000D03*
X83000000Y-38000000D03*
D14*
X86795000Y-58095000D03*
X84255000Y-58095000D03*
X81715000Y-58095000D03*
X79175000Y-58095000D03*
D15*
X81080000Y-54666000D03*
X79810000Y-54666000D03*
X88192000Y-54666000D03*
X86922000Y-54666000D03*
D16*
X77905000Y-44760000D03*
D17*
X80445000Y-44760000D03*
X82985000Y-44760000D03*
X85525000Y-44760000D03*
X88065000Y-44760000D03*
D16*
X77905000Y-69760000D03*
D17*
X80445000Y-69760000D03*
X82985000Y-69760000D03*
X85525000Y-69760000D03*
X88065000Y-69760000D03*
D15*
X88192000Y-79666000D03*
X86922000Y-79666000D03*
X81080000Y-79666000D03*
X79810000Y-79666000D03*
D14*
X86795000Y-83095000D03*
X84255000Y-83095000D03*
X81715000Y-83095000D03*
X79175000Y-83095000D03*
D12*
X83000000Y-63000000D03*
D11*
X68175000Y-83595000D03*
X69445000Y-83595000D03*
X70715000Y-83595000D03*
X71985000Y-83595000D03*
D12*
X70500000Y-63000000D03*
D13*
X73128000Y-75856000D03*
X73128000Y-77126000D03*
X73128000Y-78904000D03*
X73128000Y-80174000D03*
X73128000Y-53904000D03*
X73128000Y-55174000D03*
X73128000Y-50856000D03*
X73128000Y-52126000D03*
D12*
X70500000Y-38000000D03*
D11*
X68175000Y-58595000D03*
X69445000Y-58595000D03*
X70715000Y-58595000D03*
X71985000Y-58595000D03*
X68175000Y-108595000D03*
X69445000Y-108595000D03*
X70715000Y-108595000D03*
X71985000Y-108595000D03*
D12*
X70500000Y-88000000D03*
D13*
X73128000Y-100856000D03*
X73128000Y-102126000D03*
X73128000Y-103904000D03*
X73128000Y-105174000D03*
X73128000Y-128904000D03*
X73128000Y-130174000D03*
X73128000Y-125856000D03*
X73128000Y-127126000D03*
D12*
X70500000Y-113000000D03*
D11*
X68175000Y-133595000D03*
X69445000Y-133595000D03*
X70715000Y-133595000D03*
X71985000Y-133595000D03*
M02*
