M48
;DRILL file {KiCad 4.0.6} date 11/11/17 16:17:59
;FORMAT={3:3/ absolute / metric / suppress leading zeros}
FMAT,2
METRIC,TZ
T1C0.400
T2C0.650
T3C1.000
%
G90
G05
M71
T1
X66524Y-36124
X66524Y-57968
X66524Y-61124
X66524Y-82968
X66524Y-86124
X66524Y-107968
X66524Y-111124
X66524Y-132968
X68048Y-54920
X68048Y-79920
X68048Y-104920
X68048Y-129920
X68810Y-45776
X68810Y-70776
X68810Y-95776
X68810Y-120776
X70715Y-45776
X70715Y-70776
X70715Y-95776
X70715Y-120776
X74652Y-36124
X74652Y-42220
X74652Y-61124
X74652Y-67220
X74652Y-86124
X74652Y-92220
X74652Y-111124
X74652Y-117220
X77270Y-36378
X77270Y-61378
X77270Y-86378
X77270Y-111378
X78794Y-55428
X78794Y-80428
X78794Y-105428
X78794Y-130428
X79048Y-50856
X79048Y-75856
X79048Y-100856
X79048Y-125856
X79810Y-46792
X79810Y-54666
X79810Y-71792
X79810Y-79666
X79810Y-96792
X79810Y-104666
X79810Y-121792
X79810Y-129666
X81080Y-39680
X81080Y-54666
X81080Y-64680
X81080Y-79666
X81080Y-89680
X81080Y-104666
X81080Y-114680
X81080Y-129666
X83493Y-50856
X83493Y-75856
X83493Y-100856
X83493Y-125856
X84128Y-54666
X84128Y-79666
X84128Y-104666
X84128Y-129666
X84255Y-46665
X84255Y-71665
X84255Y-96665
X84255Y-121665
X85525Y-37775
X85525Y-62775
X85525Y-87775
X85525Y-112775
X86922Y-54666
X86922Y-79666
X86922Y-104666
X86922Y-129666
X88192Y-54666
X88192Y-79666
X88192Y-104666
X88192Y-129666
X88700Y-36378
X88700Y-61378
X88700Y-86378
X88700Y-111378
X91524Y-36124
X91524Y-57968
X91524Y-61124
X91524Y-82968
X91524Y-86124
X91524Y-107968
X91524Y-111124
X91524Y-132968
X93048Y-54920
X93048Y-79920
X93048Y-104920
X93048Y-129920
X93810Y-45776
X93810Y-70776
X93810Y-95776
X93810Y-120776
X95715Y-45776
X95715Y-70776
X95715Y-95776
X95715Y-120776
X99652Y-36124
X99652Y-42220
X99652Y-61124
X99652Y-67220
X99652Y-86124
X99652Y-92220
X99652Y-111124
X99652Y-117220
X102270Y-36378
X102270Y-61378
X102270Y-86378
X102270Y-111378
X103794Y-55428
X103794Y-80428
X103794Y-105428
X103794Y-130428
X104048Y-50856
X104048Y-75856
X104048Y-100856
X104048Y-125856
X104810Y-46792
X104810Y-54666
X104810Y-71792
X104810Y-79666
X104810Y-96792
X104810Y-104666
X104810Y-121792
X104810Y-129666
X106080Y-39680
X106080Y-54666
X106080Y-64680
X106080Y-79666
X106080Y-89680
X106080Y-104666
X106080Y-114680
X106080Y-129666
X108493Y-50856
X108493Y-75856
X108493Y-100856
X108493Y-125856
X109128Y-54666
X109128Y-79666
X109128Y-104666
X109128Y-129666
X109255Y-46665
X109255Y-71665
X109255Y-96665
X109255Y-121665
X110525Y-37775
X110525Y-62775
X110525Y-87775
X110525Y-112775
X111922Y-54666
X111922Y-79666
X111922Y-104666
X111922Y-129666
X113192Y-54666
X113192Y-79666
X113192Y-104666
X113192Y-129666
X113700Y-36378
X113700Y-61378
X113700Y-86378
X113700Y-111378
X116524Y-36124
X116524Y-57968
X116524Y-61124
X116524Y-82968
X116524Y-86124
X116524Y-107968
X116524Y-111124
X116524Y-132968
X118048Y-54920
X118048Y-79920
X118048Y-104920
X118048Y-129920
X118810Y-45776
X118810Y-70776
X118810Y-95776
X118810Y-120776
X120715Y-45776
X120715Y-70776
X120715Y-95776
X120715Y-120776
X124652Y-36124
X124652Y-42220
X124652Y-61124
X124652Y-67220
X124652Y-86124
X124652Y-92220
X124652Y-111124
X124652Y-117220
X127270Y-36378
X127270Y-61378
X127270Y-86378
X127270Y-111378
X128794Y-55428
X128794Y-80428
X128794Y-105428
X128794Y-130428
X129048Y-50856
X129048Y-75856
X129048Y-100856
X129048Y-125856
X129810Y-46792
X129810Y-54666
X129810Y-71792
X129810Y-79666
X129810Y-96792
X129810Y-104666
X129810Y-121792
X129810Y-129666
X131080Y-39680
X131080Y-54666
X131080Y-64680
X131080Y-79666
X131080Y-89680
X131080Y-104666
X131080Y-114680
X131080Y-129666
X133493Y-50856
X133493Y-75856
X133493Y-100856
X133493Y-125856
X134128Y-54666
X134128Y-79666
X134128Y-104666
X134128Y-129666
X134255Y-46665
X134255Y-71665
X134255Y-96665
X134255Y-121665
X135525Y-37775
X135525Y-62775
X135525Y-87775
X135525Y-112775
X136922Y-54666
X136922Y-79666
X136922Y-104666
X136922Y-129666
X138192Y-54666
X138192Y-79666
X138192Y-104666
X138192Y-129666
X138700Y-36378
X138700Y-61378
X138700Y-86378
X138700Y-111378
X141524Y-36124
X141524Y-57968
X141524Y-61124
X141524Y-82968
X141524Y-86124
X141524Y-107968
X141524Y-111124
X141524Y-132968
X143048Y-54920
X143048Y-79920
X143048Y-104920
X143048Y-129920
X143810Y-45776
X143810Y-70776
X143810Y-95776
X143810Y-120776
X145715Y-45776
X145715Y-70776
X145715Y-95776
X145715Y-120776
X149652Y-36124
X149652Y-42220
X149652Y-61124
X149652Y-67220
X149652Y-86124
X149652Y-92220
X149652Y-111124
X149652Y-117220
X152270Y-36378
X152270Y-61378
X152270Y-86378
X152270Y-111378
X153794Y-55428
X153794Y-80428
X153794Y-105428
X153794Y-130428
X154048Y-50856
X154048Y-75856
X154048Y-100856
X154048Y-125856
X154810Y-46792
X154810Y-54666
X154810Y-71792
X154810Y-79666
X154810Y-96792
X154810Y-104666
X154810Y-121792
X154810Y-129666
X156080Y-39680
X156080Y-54666
X156080Y-64680
X156080Y-79666
X156080Y-89680
X156080Y-104666
X156080Y-114680
X156080Y-129666
X158493Y-50856
X158493Y-75856
X158493Y-100856
X158493Y-125856
X159128Y-54666
X159128Y-79666
X159128Y-104666
X159128Y-129666
X159255Y-46665
X159255Y-71665
X159255Y-96665
X159255Y-121665
X160525Y-37775
X160525Y-62775
X160525Y-87775
X160525Y-112775
X161922Y-54666
X161922Y-79666
X161922Y-104666
X161922Y-129666
X163192Y-54666
X163192Y-79666
X163192Y-104666
X163192Y-129666
X163700Y-36378
X163700Y-61378
X163700Y-86378
X163700Y-111378
T2
X68175Y-58095
X68175Y-83095
X68175Y-108095
X68175Y-133095
X69445Y-58095
X69445Y-83095
X69445Y-108095
X69445Y-133095
X70715Y-58095
X70715Y-83095
X70715Y-108095
X70715Y-133095
X71985Y-58095
X71985Y-83095
X71985Y-108095
X71985Y-133095
X73128Y-50856
X73128Y-52126
X73128Y-53904
X73128Y-55174
X73128Y-75856
X73128Y-77126
X73128Y-78904
X73128Y-80174
X73128Y-100856
X73128Y-102126
X73128Y-103904
X73128Y-105174
X73128Y-125856
X73128Y-127126
X73128Y-128904
X73128Y-130174
X93175Y-58095
X93175Y-83095
X93175Y-108095
X93175Y-133095
X94445Y-58095
X94445Y-83095
X94445Y-108095
X94445Y-133095
X95715Y-58095
X95715Y-83095
X95715Y-108095
X95715Y-133095
X96985Y-58095
X96985Y-83095
X96985Y-108095
X96985Y-133095
X98128Y-50856
X98128Y-52126
X98128Y-53904
X98128Y-55174
X98128Y-75856
X98128Y-77126
X98128Y-78904
X98128Y-80174
X98128Y-100856
X98128Y-102126
X98128Y-103904
X98128Y-105174
X98128Y-125856
X98128Y-127126
X98128Y-128904
X98128Y-130174
X118175Y-58095
X118175Y-83095
X118175Y-108095
X118175Y-133095
X119445Y-58095
X119445Y-83095
X119445Y-108095
X119445Y-133095
X120715Y-58095
X120715Y-83095
X120715Y-108095
X120715Y-133095
X121985Y-58095
X121985Y-83095
X121985Y-108095
X121985Y-133095
X123128Y-50856
X123128Y-52126
X123128Y-53904
X123128Y-55174
X123128Y-75856
X123128Y-77126
X123128Y-78904
X123128Y-80174
X123128Y-100856
X123128Y-102126
X123128Y-103904
X123128Y-105174
X123128Y-125856
X123128Y-127126
X123128Y-128904
X123128Y-130174
X143175Y-58095
X143175Y-83095
X143175Y-108095
X143175Y-133095
X144445Y-58095
X144445Y-83095
X144445Y-108095
X144445Y-133095
X145715Y-58095
X145715Y-83095
X145715Y-108095
X145715Y-133095
X146985Y-58095
X146985Y-83095
X146985Y-108095
X146985Y-133095
X148128Y-50856
X148128Y-52126
X148128Y-53904
X148128Y-55174
X148128Y-75856
X148128Y-77126
X148128Y-78904
X148128Y-80174
X148128Y-100856
X148128Y-102126
X148128Y-103904
X148128Y-105174
X148128Y-125856
X148128Y-127126
X148128Y-128904
X148128Y-130174
T3
X77905Y-44760
X77905Y-69760
X77905Y-94760
X77905Y-119760
X79175Y-58095
X79175Y-83095
X79175Y-108095
X79175Y-133095
X80445Y-44760
X80445Y-69760
X80445Y-94760
X80445Y-119760
X81715Y-58095
X81715Y-83095
X81715Y-108095
X81715Y-133095
X82985Y-44760
X82985Y-69760
X82985Y-94760
X82985Y-119760
X84255Y-58095
X84255Y-83095
X84255Y-108095
X84255Y-133095
X85525Y-44760
X85525Y-69760
X85525Y-94760
X85525Y-119760
X86795Y-58095
X86795Y-83095
X86795Y-108095
X86795Y-133095
X88065Y-44760
X88065Y-69760
X88065Y-94760
X88065Y-119760
X102905Y-44760
X102905Y-69760
X102905Y-94760
X102905Y-119760
X104175Y-58095
X104175Y-83095
X104175Y-108095
X104175Y-133095
X105445Y-44760
X105445Y-69760
X105445Y-94760
X105445Y-119760
X106715Y-58095
X106715Y-83095
X106715Y-108095
X106715Y-133095
X107985Y-44760
X107985Y-69760
X107985Y-94760
X107985Y-119760
X109255Y-58095
X109255Y-83095
X109255Y-108095
X109255Y-133095
X110525Y-44760
X110525Y-69760
X110525Y-94760
X110525Y-119760
X111795Y-58095
X111795Y-83095
X111795Y-108095
X111795Y-133095
X113065Y-44760
X113065Y-69760
X113065Y-94760
X113065Y-119760
X127905Y-44760
X127905Y-69760
X127905Y-94760
X127905Y-119760
X129175Y-58095
X129175Y-83095
X129175Y-108095
X129175Y-133095
X130445Y-44760
X130445Y-69760
X130445Y-94760
X130445Y-119760
X131715Y-58095
X131715Y-83095
X131715Y-108095
X131715Y-133095
X132985Y-44760
X132985Y-69760
X132985Y-94760
X132985Y-119760
X134255Y-58095
X134255Y-83095
X134255Y-108095
X134255Y-133095
X135525Y-44760
X135525Y-69760
X135525Y-94760
X135525Y-119760
X136795Y-58095
X136795Y-83095
X136795Y-108095
X136795Y-133095
X138065Y-44760
X138065Y-69760
X138065Y-94760
X138065Y-119760
X152905Y-44760
X152905Y-69760
X152905Y-94760
X152905Y-119760
X154175Y-58095
X154175Y-83095
X154175Y-108095
X154175Y-133095
X155445Y-44760
X155445Y-69760
X155445Y-94760
X155445Y-119760
X156715Y-58095
X156715Y-83095
X156715Y-108095
X156715Y-133095
X157985Y-44760
X157985Y-69760
X157985Y-94760
X157985Y-119760
X159255Y-58095
X159255Y-83095
X159255Y-108095
X159255Y-133095
X160525Y-44760
X160525Y-69760
X160525Y-94760
X160525Y-119760
X161795Y-58095
X161795Y-83095
X161795Y-108095
X161795Y-133095
X163065Y-44760
X163065Y-69760
X163065Y-94760
X163065Y-119760
T0
M30
